<?xml version="1.0" encoding="UTF-8" standalone="no"?>
<!-- Generator: Adobe Illustrator 12.0.1, SVG Export Plug-In . SVG Version: 6.00 Build 51448)  -->

<svg
   version="1.1"
   id="Layer_1"
   width="299.785"
   height="54.620998"
   viewBox="0 0 299.785 54.621"
   overflow="visible"
   enable-background="new 0 0 299.785 54.621"
   xml:space="preserve"
   sodipodi:docname="Score_TV_Network_logo.svg"
   xmlns:inkscape="http://www.inkscape.org/namespaces/inkscape"
   xmlns:sodipodi="http://sodipodi.sourceforge.net/DTD/sodipodi-0.dtd"
   xmlns="http://www.w3.org/2000/svg"
   xmlns:svg="http://www.w3.org/2000/svg"><defs
   id="defs8" /><sodipodi:namedview
   id="namedview8"
   pagecolor="#ffffff"
   bordercolor="#000000"
   borderopacity="0.25"
   inkscape:showpageshadow="2"
   inkscape:pageopacity="0.0"
   inkscape:pagecheckerboard="0"
   inkscape:deskcolor="#d1d1d1" />
<path
   fill="#F4B752"
   d="m 27.117,12.059 -2,7.086 h -5.068 l -3.303,11.913 c -1.04,3.654 -1.238,4.548 3.625,5.039 L 18.437,43.15 10.71,43.582 C 0.493,44.185 -1.382,41.539 0.822,33.674 L 4.83,19.146 H 2.955 l 2,-7.086 H 6.837 L 8.522,5.992 24.657,2.685 22.072,12.06 27.117,12.059"
   id="path1"
   style="fill:#ffffff;fill-opacity:1" />
<path
   fill="#F4B752"
   d="m 57.425,11.356 c 5.698,-0.099 10.056,1.926 8.108,9.016 l -3.252,11.667 c -0.842,3.012 -0.842,3.398 0.652,4.096 l -1.948,6.943 H 44.739 c 0.051,-1.957 -0.33,-1.803 1.553,-8.481 l 0.33,-1.187 2.52,-9.079 c 0.447,-1.582 1.025,-4.014 -2.585,-4.314 -0.652,0 -1.304,0.106 -2,0.355 l -3.274,11.667 c -0.857,2.807 -1.04,3.355 0.718,4.096 l -1.948,6.943 H 21.06 l 1.948,-6.943 c 2.197,-0.836 2.336,-1.582 2.981,-3.903 L 31.68,11.844 C 32.2,9.782 32.522,8.453 30.845,7.765 l 1.934,-6.947 h 17.212 l -3.494,12.564 c 2.197,-0.902 5.23,-1.975 10.928,-2.026"
   id="path2"
   style="fill:#ffffff;fill-opacity:1" />
<path
   fill="#F4B752"
   d="m 89.6,23.276 h -5.955 c 1.106,-3.937 2.197,-4.442 4.138,-4.38 2.733,0.037 2.542,1.835 1.817,4.38 m -21.357,0.337 -2.329,8.434 c -0.645,2.358 -1.033,4.277 -0.842,5.765 0.579,4.622 5.625,6.256 17.783,6.204 6.16,-0.044 12.576,-1.582 17.043,-3.991 l 2.197,-7.793 H 86.817 l -0.322,1.149 c -0.974,3.486 -2.783,3.441 -3.838,3.384 -2.476,-0.044 -2.41,-1.466 -1.824,-3.537 l 0.784,-2.871 h 21.006 l 2.08,-7.336 C 107.296,13.617 101.444,11.643 89.417,11.643 73.091,11.642 70.191,16.772 68.243,23.613"
   id="path3"
   style="fill:#ffffff;fill-opacity:1" />
<path
   fill="#1B2E66"
   d="m 132.095,9.097 c -3.647,-0.052 -4.548,3.112 -4.351,4.156 0.454,2.45 8.232,3.344 12.334,4.475 8.101,2.274 9.207,6.413 7.646,11.85 l -0.059,0.194 c -2.468,8.829 -9.478,14.089 -25.217,14.14 -8.364,0.051 -14.656,-1.473 -18.816,-4.424 l 3.12,-11.349 h 16.853 c -0.256,1.079 -0.571,2.131 -0.835,3.163 -0.322,1.08 -0.967,3.453 2.644,3.506 1.289,0.043 3.435,-0.535 4.27,-3.256 1.172,-3.856 -1.348,-4.545 -8.335,-5.882 C 114.603,24.345 107.47,22.77 110.202,12.944 112.671,4.116 119.988,0 133.765,0 c 8.123,0 14.033,1.124 19.277,4.416 l -2.776,9.961 H 134.102 L 134.3,13.59 c 0.908,-3.256 0.315,-4.449 -2.205,-4.493"
   id="path4"
   style="fill:#ffffff;fill-opacity:1" />
<path
   fill="#1B2E66"
   d="m 174.67,21.075 c 0.418,-1.461 0.484,-2.41 0.059,-2.926 -0.276,-0.531 -0.893,-0.78 -1.992,-0.78 -2.276,0 -3.17,0.571 -4.145,4.127 l -2.945,10.492 c -1.018,3.758 -0.271,4.219 1.78,4.277 1.935,0 3.179,-0.571 4.476,-5.27 l 0.49,-1.726 h 15.25 l -2.828,10.188 c -4.416,2.725 -10.772,4.453 -20.323,4.504 -16.187,0.052 -16.802,-5.545 -15.015,-12.088 l 3.09,-10.958 c 1.947,-6.899 6.086,-11.199 21.131,-11.25 9.609,-0.044 14.912,1.783 18.287,4.087 l -2.467,8.994 h -15.265 l 0.278,-1.051 0.139,-0.62"
   id="path5"
   style="fill:#ffffff;fill-opacity:1" />
<path
   fill="#1B2E66"
   d="m 204.869,31.775 2.607,-9.503 c 0.834,-2.761 1.441,-4.966 4.476,-4.899 2.014,0 2.834,0.879 1.677,4.899 l -2.637,9.503 c -1.297,4.594 -2.762,4.549 -4.401,4.49 -2.894,-0.058 -2.609,-1.465 -1.722,-4.49 m 22.675,-1.043 2.409,-8.566 C 232.576,12.813 229.617,9.568 213.064,9.664 196.751,9.77 193.711,13.799 191.361,22.166 l -2.408,8.566 c -2.975,10.499 0.139,13.282 16.113,13.238 14.627,-0.058 19.579,-2.995 22.478,-13.238"
   id="path6"
   style="fill:#ffffff;fill-opacity:1" />
<path
   fill="#1B2E66"
   d="m 259.618,9.591 1.846,0.157 -3.099,11.25 c -5.854,0 -8.54,1.201 -9.997,6.284 l -0.896,3.197 c -0.549,2.052 -2.211,4.043 0.82,5.464 l -2.059,7.354 h -20.551 l 2.071,-7.471 c 0.96,-0.365 2.197,-0.732 3.238,-4.357 l 2.614,-9.323 c 0.769,-2.765 0.894,-3.344 -0.748,-4.34 l 2.052,-7.478 h 17.446 l -0.756,2.614 c 2.905,-2.721 4.979,-3.351 8.019,-3.351"
   id="path7"
   style="fill:#ffffff;fill-opacity:1" />
<path
   fill="#1B2E66"
   d="m 283.04,21.932 h -6.356 c 1.18,-4.105 2.352,-4.629 4.416,-4.57 2.9,0.055 2.688,1.93 1.94,4.57 m -22.742,0.366 -2.476,8.939 c -0.695,2.522 -1.113,4.56 -0.9,6.128 0.622,4.928 6.006,6.649 18.939,6.605 6.556,-0.059 13.396,-1.678 18.187,-4.24 l 2.329,-8.273 h -16.304 l -0.353,1.205 c -1.031,3.707 -2.966,3.662 -4.078,3.604 -2.646,-0.06 -2.564,-1.567 -1.941,-3.75 l 0.842,-3.039 h 22.369 l 2.227,-7.793 C 301.901,11.778 295.69,9.661 282.827,9.661 265.477,9.66 262.364,15.113 260.298,22.298"
   id="path8"
   style="fill:#ffffff;fill-opacity:1" />
<polygon
   fill="#f4b752"
   points="101.583,47.046 99.429,54.621 141.25,54.621 143.411,47.046 "
   id="polygon8" />
</svg>
